<mxfile host="app.diagrams.net" modified="2023-11-19T19:18:09.576Z" agent="Mozilla/5.0 (Windows NT 10.0; Win64; x64) AppleWebKit/537.36 (KHTML, like Gecko) Chrome/116.0.5845.660 YaBrowser/23.9.5.660 Yowser/2.5 Safari/537.36" etag="Nn2eele59N_QakTbGNHQ" version="22.1.3" type="device">
  <diagram id="C5RBs43oDa-KdzZeNtuy" name="Page-1">
    <mxGraphModel dx="1122" dy="740" grid="1" gridSize="10" guides="1" tooltips="1" connect="1" arrows="1" fold="1" page="1" pageScale="1" pageWidth="827" pageHeight="1169" math="0" shadow="0">
      <root>
        <mxCell id="WIyWlLk6GJQsqaUBKTNV-0" />
        <mxCell id="WIyWlLk6GJQsqaUBKTNV-1" parent="WIyWlLk6GJQsqaUBKTNV-0" />
        <mxCell id="phmzc0bk1OuxTDMJxnuO-5" value="" style="edgeStyle=orthogonalEdgeStyle;rounded=0;orthogonalLoop=1;jettySize=auto;html=1;" edge="1" parent="WIyWlLk6GJQsqaUBKTNV-1" source="phmzc0bk1OuxTDMJxnuO-1" target="phmzc0bk1OuxTDMJxnuO-2">
          <mxGeometry relative="1" as="geometry" />
        </mxCell>
        <mxCell id="phmzc0bk1OuxTDMJxnuO-1" value="Начало алгоритма" style="ellipse;whiteSpace=wrap;html=1;" vertex="1" parent="WIyWlLk6GJQsqaUBKTNV-1">
          <mxGeometry x="80" y="80" width="120" height="40" as="geometry" />
        </mxCell>
        <mxCell id="phmzc0bk1OuxTDMJxnuO-6" value="" style="edgeStyle=orthogonalEdgeStyle;rounded=0;orthogonalLoop=1;jettySize=auto;html=1;" edge="1" parent="WIyWlLk6GJQsqaUBKTNV-1" source="phmzc0bk1OuxTDMJxnuO-2" target="phmzc0bk1OuxTDMJxnuO-3">
          <mxGeometry relative="1" as="geometry" />
        </mxCell>
        <mxCell id="phmzc0bk1OuxTDMJxnuO-7" style="edgeStyle=orthogonalEdgeStyle;rounded=0;orthogonalLoop=1;jettySize=auto;html=1;exitX=1;exitY=0.5;exitDx=0;exitDy=0;entryX=0.5;entryY=0;entryDx=0;entryDy=0;" edge="1" parent="WIyWlLk6GJQsqaUBKTNV-1" source="phmzc0bk1OuxTDMJxnuO-2" target="phmzc0bk1OuxTDMJxnuO-4">
          <mxGeometry relative="1" as="geometry" />
        </mxCell>
        <mxCell id="phmzc0bk1OuxTDMJxnuO-2" value="Есть чип на карте" style="rhombus;whiteSpace=wrap;html=1;" vertex="1" parent="WIyWlLk6GJQsqaUBKTNV-1">
          <mxGeometry x="80" y="160" width="120" height="40" as="geometry" />
        </mxCell>
        <mxCell id="phmzc0bk1OuxTDMJxnuO-21" value="" style="edgeStyle=orthogonalEdgeStyle;rounded=0;orthogonalLoop=1;jettySize=auto;html=1;" edge="1" parent="WIyWlLk6GJQsqaUBKTNV-1" source="phmzc0bk1OuxTDMJxnuO-3" target="phmzc0bk1OuxTDMJxnuO-20">
          <mxGeometry relative="1" as="geometry" />
        </mxCell>
        <mxCell id="phmzc0bk1OuxTDMJxnuO-3" value="Приложить карту к считывателю" style="rounded=0;whiteSpace=wrap;html=1;" vertex="1" parent="WIyWlLk6GJQsqaUBKTNV-1">
          <mxGeometry x="80" y="240" width="120" height="40" as="geometry" />
        </mxCell>
        <mxCell id="phmzc0bk1OuxTDMJxnuO-22" value="" style="edgeStyle=orthogonalEdgeStyle;rounded=0;orthogonalLoop=1;jettySize=auto;html=1;" edge="1" parent="WIyWlLk6GJQsqaUBKTNV-1" source="phmzc0bk1OuxTDMJxnuO-4" target="phmzc0bk1OuxTDMJxnuO-20">
          <mxGeometry relative="1" as="geometry" />
        </mxCell>
        <mxCell id="phmzc0bk1OuxTDMJxnuO-4" value="Вставить карту в банкомат" style="rounded=0;whiteSpace=wrap;html=1;" vertex="1" parent="WIyWlLk6GJQsqaUBKTNV-1">
          <mxGeometry x="240" y="240" width="120" height="40" as="geometry" />
        </mxCell>
        <mxCell id="phmzc0bk1OuxTDMJxnuO-8" value="Да" style="text;strokeColor=none;fillColor=none;align=left;verticalAlign=middle;spacingLeft=4;spacingRight=4;overflow=hidden;points=[[0,0.5],[1,0.5]];portConstraint=eastwest;rotatable=0;whiteSpace=wrap;html=1;" vertex="1" parent="WIyWlLk6GJQsqaUBKTNV-1">
          <mxGeometry x="140" y="200" width="80" height="30" as="geometry" />
        </mxCell>
        <mxCell id="phmzc0bk1OuxTDMJxnuO-9" value="Нет&lt;br&gt;" style="text;strokeColor=none;fillColor=none;align=left;verticalAlign=middle;spacingLeft=4;spacingRight=4;overflow=hidden;points=[[0,0.5],[1,0.5]];portConstraint=eastwest;rotatable=0;whiteSpace=wrap;html=1;" vertex="1" parent="WIyWlLk6GJQsqaUBKTNV-1">
          <mxGeometry x="230" y="150" width="80" height="30" as="geometry" />
        </mxCell>
        <mxCell id="phmzc0bk1OuxTDMJxnuO-18" value="" style="edgeStyle=orthogonalEdgeStyle;rounded=0;orthogonalLoop=1;jettySize=auto;html=1;" edge="1" parent="WIyWlLk6GJQsqaUBKTNV-1" source="phmzc0bk1OuxTDMJxnuO-10" target="phmzc0bk1OuxTDMJxnuO-13">
          <mxGeometry relative="1" as="geometry" />
        </mxCell>
        <mxCell id="phmzc0bk1OuxTDMJxnuO-10" value="Выбрать команду на экране" style="rounded=0;whiteSpace=wrap;html=1;" vertex="1" parent="WIyWlLk6GJQsqaUBKTNV-1">
          <mxGeometry x="160" y="480" width="120" height="40" as="geometry" />
        </mxCell>
        <mxCell id="phmzc0bk1OuxTDMJxnuO-30" value="" style="edgeStyle=orthogonalEdgeStyle;rounded=0;orthogonalLoop=1;jettySize=auto;html=1;" edge="1" parent="WIyWlLk6GJQsqaUBKTNV-1" source="phmzc0bk1OuxTDMJxnuO-13" target="phmzc0bk1OuxTDMJxnuO-29">
          <mxGeometry relative="1" as="geometry" />
        </mxCell>
        <mxCell id="phmzc0bk1OuxTDMJxnuO-31" value="" style="edgeStyle=orthogonalEdgeStyle;rounded=0;orthogonalLoop=1;jettySize=auto;html=1;" edge="1" parent="WIyWlLk6GJQsqaUBKTNV-1" source="phmzc0bk1OuxTDMJxnuO-13" target="phmzc0bk1OuxTDMJxnuO-14">
          <mxGeometry relative="1" as="geometry" />
        </mxCell>
        <mxCell id="phmzc0bk1OuxTDMJxnuO-13" value="Команда: Запрос баланса" style="rhombus;whiteSpace=wrap;html=1;" vertex="1" parent="WIyWlLk6GJQsqaUBKTNV-1">
          <mxGeometry x="160" y="560" width="120" height="40" as="geometry" />
        </mxCell>
        <mxCell id="phmzc0bk1OuxTDMJxnuO-37" value="" style="edgeStyle=orthogonalEdgeStyle;rounded=0;orthogonalLoop=1;jettySize=auto;html=1;" edge="1" parent="WIyWlLk6GJQsqaUBKTNV-1" source="phmzc0bk1OuxTDMJxnuO-14" target="phmzc0bk1OuxTDMJxnuO-35">
          <mxGeometry relative="1" as="geometry" />
        </mxCell>
        <mxCell id="phmzc0bk1OuxTDMJxnuO-38" value="" style="edgeStyle=orthogonalEdgeStyle;rounded=0;orthogonalLoop=1;jettySize=auto;html=1;" edge="1" parent="WIyWlLk6GJQsqaUBKTNV-1" source="phmzc0bk1OuxTDMJxnuO-14" target="phmzc0bk1OuxTDMJxnuO-17">
          <mxGeometry relative="1" as="geometry" />
        </mxCell>
        <mxCell id="phmzc0bk1OuxTDMJxnuO-14" value="Команда: Снятие наличных" style="rhombus;whiteSpace=wrap;html=1;" vertex="1" parent="WIyWlLk6GJQsqaUBKTNV-1">
          <mxGeometry x="320" y="560" width="120" height="40" as="geometry" />
        </mxCell>
        <mxCell id="phmzc0bk1OuxTDMJxnuO-39" value="" style="edgeStyle=orthogonalEdgeStyle;rounded=0;orthogonalLoop=1;jettySize=auto;html=1;" edge="1" parent="WIyWlLk6GJQsqaUBKTNV-1" source="phmzc0bk1OuxTDMJxnuO-17" target="phmzc0bk1OuxTDMJxnuO-36">
          <mxGeometry relative="1" as="geometry" />
        </mxCell>
        <mxCell id="phmzc0bk1OuxTDMJxnuO-81" style="edgeStyle=orthogonalEdgeStyle;rounded=0;orthogonalLoop=1;jettySize=auto;html=1;entryX=0.5;entryY=0;entryDx=0;entryDy=0;" edge="1" parent="WIyWlLk6GJQsqaUBKTNV-1" source="phmzc0bk1OuxTDMJxnuO-17" target="phmzc0bk1OuxTDMJxnuO-72">
          <mxGeometry relative="1" as="geometry" />
        </mxCell>
        <mxCell id="phmzc0bk1OuxTDMJxnuO-17" value="Команда: Внесение наличных" style="rhombus;whiteSpace=wrap;html=1;" vertex="1" parent="WIyWlLk6GJQsqaUBKTNV-1">
          <mxGeometry x="480" y="560" width="120" height="40" as="geometry" />
        </mxCell>
        <mxCell id="phmzc0bk1OuxTDMJxnuO-24" value="" style="edgeStyle=orthogonalEdgeStyle;rounded=0;orthogonalLoop=1;jettySize=auto;html=1;" edge="1" parent="WIyWlLk6GJQsqaUBKTNV-1" source="phmzc0bk1OuxTDMJxnuO-20" target="phmzc0bk1OuxTDMJxnuO-23">
          <mxGeometry relative="1" as="geometry" />
        </mxCell>
        <mxCell id="phmzc0bk1OuxTDMJxnuO-20" value="Ввести пин-код" style="rounded=0;whiteSpace=wrap;html=1;" vertex="1" parent="WIyWlLk6GJQsqaUBKTNV-1">
          <mxGeometry x="160" y="320" width="120" height="40" as="geometry" />
        </mxCell>
        <mxCell id="phmzc0bk1OuxTDMJxnuO-26" style="edgeStyle=orthogonalEdgeStyle;rounded=0;orthogonalLoop=1;jettySize=auto;html=1;exitX=1;exitY=0.5;exitDx=0;exitDy=0;entryX=1;entryY=0.5;entryDx=0;entryDy=0;" edge="1" parent="WIyWlLk6GJQsqaUBKTNV-1" source="phmzc0bk1OuxTDMJxnuO-23" target="phmzc0bk1OuxTDMJxnuO-20">
          <mxGeometry relative="1" as="geometry" />
        </mxCell>
        <mxCell id="phmzc0bk1OuxTDMJxnuO-28" value="" style="edgeStyle=orthogonalEdgeStyle;rounded=0;orthogonalLoop=1;jettySize=auto;html=1;" edge="1" parent="WIyWlLk6GJQsqaUBKTNV-1" source="phmzc0bk1OuxTDMJxnuO-23" target="phmzc0bk1OuxTDMJxnuO-10">
          <mxGeometry relative="1" as="geometry" />
        </mxCell>
        <mxCell id="phmzc0bk1OuxTDMJxnuO-23" value="Пин-код введен верно" style="rhombus;whiteSpace=wrap;html=1;" vertex="1" parent="WIyWlLk6GJQsqaUBKTNV-1">
          <mxGeometry x="160" y="400" width="120" height="40" as="geometry" />
        </mxCell>
        <mxCell id="phmzc0bk1OuxTDMJxnuO-25" value="Да" style="text;strokeColor=none;fillColor=none;align=left;verticalAlign=middle;spacingLeft=4;spacingRight=4;overflow=hidden;points=[[0,0.5],[1,0.5]];portConstraint=eastwest;rotatable=0;whiteSpace=wrap;html=1;" vertex="1" parent="WIyWlLk6GJQsqaUBKTNV-1">
          <mxGeometry x="220" y="440" width="80" height="30" as="geometry" />
        </mxCell>
        <mxCell id="phmzc0bk1OuxTDMJxnuO-27" value="Нет" style="text;strokeColor=none;fillColor=none;align=left;verticalAlign=middle;spacingLeft=4;spacingRight=4;overflow=hidden;points=[[0,0.5],[1,0.5]];portConstraint=eastwest;rotatable=0;whiteSpace=wrap;html=1;" vertex="1" parent="WIyWlLk6GJQsqaUBKTNV-1">
          <mxGeometry x="300" y="370" width="80" height="30" as="geometry" />
        </mxCell>
        <mxCell id="phmzc0bk1OuxTDMJxnuO-45" style="edgeStyle=orthogonalEdgeStyle;rounded=0;orthogonalLoop=1;jettySize=auto;html=1;" edge="1" parent="WIyWlLk6GJQsqaUBKTNV-1" source="phmzc0bk1OuxTDMJxnuO-29">
          <mxGeometry relative="1" as="geometry">
            <mxPoint x="60" y="720" as="targetPoint" />
          </mxGeometry>
        </mxCell>
        <mxCell id="phmzc0bk1OuxTDMJxnuO-29" value="Выбрать вариант вывода" style="rounded=0;whiteSpace=wrap;html=1;" vertex="1" parent="WIyWlLk6GJQsqaUBKTNV-1">
          <mxGeometry x="160" y="640" width="120" height="40" as="geometry" />
        </mxCell>
        <mxCell id="phmzc0bk1OuxTDMJxnuO-32" value="Да" style="text;strokeColor=none;fillColor=none;align=left;verticalAlign=middle;spacingLeft=4;spacingRight=4;overflow=hidden;points=[[0,0.5],[1,0.5]];portConstraint=eastwest;rotatable=0;whiteSpace=wrap;html=1;" vertex="1" parent="WIyWlLk6GJQsqaUBKTNV-1">
          <mxGeometry x="220" y="600" width="80" height="30" as="geometry" />
        </mxCell>
        <mxCell id="phmzc0bk1OuxTDMJxnuO-33" value="Нет" style="text;strokeColor=none;fillColor=none;align=left;verticalAlign=middle;spacingLeft=4;spacingRight=4;overflow=hidden;points=[[0,0.5],[1,0.5]];portConstraint=eastwest;rotatable=0;whiteSpace=wrap;html=1;" vertex="1" parent="WIyWlLk6GJQsqaUBKTNV-1">
          <mxGeometry x="280" y="560" width="80" height="30" as="geometry" />
        </mxCell>
        <mxCell id="phmzc0bk1OuxTDMJxnuO-57" value="" style="edgeStyle=orthogonalEdgeStyle;rounded=0;orthogonalLoop=1;jettySize=auto;html=1;" edge="1" parent="WIyWlLk6GJQsqaUBKTNV-1" source="phmzc0bk1OuxTDMJxnuO-35" target="phmzc0bk1OuxTDMJxnuO-54">
          <mxGeometry relative="1" as="geometry" />
        </mxCell>
        <mxCell id="phmzc0bk1OuxTDMJxnuO-35" value="Ввести сумму" style="rounded=0;whiteSpace=wrap;html=1;" vertex="1" parent="WIyWlLk6GJQsqaUBKTNV-1">
          <mxGeometry x="320" y="640" width="120" height="40" as="geometry" />
        </mxCell>
        <mxCell id="phmzc0bk1OuxTDMJxnuO-66" style="edgeStyle=orthogonalEdgeStyle;rounded=0;orthogonalLoop=1;jettySize=auto;html=1;entryX=0.5;entryY=0;entryDx=0;entryDy=0;" edge="1" parent="WIyWlLk6GJQsqaUBKTNV-1" source="phmzc0bk1OuxTDMJxnuO-36">
          <mxGeometry relative="1" as="geometry">
            <mxPoint x="620" y="720" as="targetPoint" />
          </mxGeometry>
        </mxCell>
        <mxCell id="phmzc0bk1OuxTDMJxnuO-36" value="Внести наличные в банкомат" style="rounded=0;whiteSpace=wrap;html=1;" vertex="1" parent="WIyWlLk6GJQsqaUBKTNV-1">
          <mxGeometry x="480" y="640" width="120" height="40" as="geometry" />
        </mxCell>
        <mxCell id="phmzc0bk1OuxTDMJxnuO-40" value="Нет" style="text;strokeColor=none;fillColor=none;align=left;verticalAlign=middle;spacingLeft=4;spacingRight=4;overflow=hidden;points=[[0,0.5],[1,0.5]];portConstraint=eastwest;rotatable=0;whiteSpace=wrap;html=1;" vertex="1" parent="WIyWlLk6GJQsqaUBKTNV-1">
          <mxGeometry x="440" y="560" width="80" height="30" as="geometry" />
        </mxCell>
        <mxCell id="phmzc0bk1OuxTDMJxnuO-41" value="Да" style="text;strokeColor=none;fillColor=none;align=left;verticalAlign=middle;spacingLeft=4;spacingRight=4;overflow=hidden;points=[[0,0.5],[1,0.5]];portConstraint=eastwest;rotatable=0;whiteSpace=wrap;html=1;" vertex="1" parent="WIyWlLk6GJQsqaUBKTNV-1">
          <mxGeometry x="380" y="600" width="80" height="30" as="geometry" />
        </mxCell>
        <mxCell id="phmzc0bk1OuxTDMJxnuO-42" value="Да" style="text;strokeColor=none;fillColor=none;align=left;verticalAlign=middle;spacingLeft=4;spacingRight=4;overflow=hidden;points=[[0,0.5],[1,0.5]];portConstraint=eastwest;rotatable=0;whiteSpace=wrap;html=1;" vertex="1" parent="WIyWlLk6GJQsqaUBKTNV-1">
          <mxGeometry x="540" y="600" width="80" height="30" as="geometry" />
        </mxCell>
        <mxCell id="phmzc0bk1OuxTDMJxnuO-48" value="" style="edgeStyle=orthogonalEdgeStyle;rounded=0;orthogonalLoop=1;jettySize=auto;html=1;" edge="1" parent="WIyWlLk6GJQsqaUBKTNV-1" source="phmzc0bk1OuxTDMJxnuO-46" target="phmzc0bk1OuxTDMJxnuO-47">
          <mxGeometry relative="1" as="geometry" />
        </mxCell>
        <mxCell id="phmzc0bk1OuxTDMJxnuO-52" value="" style="edgeStyle=orthogonalEdgeStyle;rounded=0;orthogonalLoop=1;jettySize=auto;html=1;" edge="1" parent="WIyWlLk6GJQsqaUBKTNV-1" source="phmzc0bk1OuxTDMJxnuO-46" target="phmzc0bk1OuxTDMJxnuO-50">
          <mxGeometry relative="1" as="geometry" />
        </mxCell>
        <mxCell id="phmzc0bk1OuxTDMJxnuO-46" value="Распечатать чек?" style="rhombus;whiteSpace=wrap;html=1;" vertex="1" parent="WIyWlLk6GJQsqaUBKTNV-1">
          <mxGeometry y="720" width="120" height="40" as="geometry" />
        </mxCell>
        <mxCell id="phmzc0bk1OuxTDMJxnuO-84" style="edgeStyle=orthogonalEdgeStyle;rounded=0;orthogonalLoop=1;jettySize=auto;html=1;entryX=0;entryY=0.5;entryDx=0;entryDy=0;" edge="1" parent="WIyWlLk6GJQsqaUBKTNV-1" source="phmzc0bk1OuxTDMJxnuO-47" target="phmzc0bk1OuxTDMJxnuO-72">
          <mxGeometry relative="1" as="geometry">
            <mxPoint x="180" y="960" as="targetPoint" />
            <Array as="points">
              <mxPoint x="60" y="960" />
              <mxPoint x="680" y="960" />
            </Array>
          </mxGeometry>
        </mxCell>
        <mxCell id="phmzc0bk1OuxTDMJxnuO-47" value="Взять чек&lt;br&gt;" style="rounded=0;whiteSpace=wrap;html=1;" vertex="1" parent="WIyWlLk6GJQsqaUBKTNV-1">
          <mxGeometry y="800" width="120" height="40" as="geometry" />
        </mxCell>
        <mxCell id="phmzc0bk1OuxTDMJxnuO-49" value="Да" style="text;strokeColor=none;fillColor=none;align=left;verticalAlign=middle;spacingLeft=4;spacingRight=4;overflow=hidden;points=[[0,0.5],[1,0.5]];portConstraint=eastwest;rotatable=0;whiteSpace=wrap;html=1;" vertex="1" parent="WIyWlLk6GJQsqaUBKTNV-1">
          <mxGeometry x="60" y="760" width="80" height="30" as="geometry" />
        </mxCell>
        <mxCell id="phmzc0bk1OuxTDMJxnuO-50" value="Напечатать на экране" style="rounded=0;whiteSpace=wrap;html=1;" vertex="1" parent="WIyWlLk6GJQsqaUBKTNV-1">
          <mxGeometry x="160" y="720" width="120" height="40" as="geometry" />
        </mxCell>
        <mxCell id="phmzc0bk1OuxTDMJxnuO-53" value="Нет" style="text;strokeColor=none;fillColor=none;align=left;verticalAlign=middle;spacingLeft=4;spacingRight=4;overflow=hidden;points=[[0,0.5],[1,0.5]];portConstraint=eastwest;rotatable=0;whiteSpace=wrap;html=1;" vertex="1" parent="WIyWlLk6GJQsqaUBKTNV-1">
          <mxGeometry x="120" y="710" width="80" height="30" as="geometry" />
        </mxCell>
        <mxCell id="phmzc0bk1OuxTDMJxnuO-58" value="" style="edgeStyle=orthogonalEdgeStyle;rounded=0;orthogonalLoop=1;jettySize=auto;html=1;" edge="1" parent="WIyWlLk6GJQsqaUBKTNV-1" source="phmzc0bk1OuxTDMJxnuO-54" target="phmzc0bk1OuxTDMJxnuO-56">
          <mxGeometry relative="1" as="geometry" />
        </mxCell>
        <mxCell id="phmzc0bk1OuxTDMJxnuO-61" style="edgeStyle=orthogonalEdgeStyle;rounded=0;orthogonalLoop=1;jettySize=auto;html=1;exitX=1;exitY=0.5;exitDx=0;exitDy=0;" edge="1" parent="WIyWlLk6GJQsqaUBKTNV-1" source="phmzc0bk1OuxTDMJxnuO-54" target="phmzc0bk1OuxTDMJxnuO-60">
          <mxGeometry relative="1" as="geometry" />
        </mxCell>
        <mxCell id="phmzc0bk1OuxTDMJxnuO-54" value="Сумма доступна для снятия" style="rhombus;whiteSpace=wrap;html=1;" vertex="1" parent="WIyWlLk6GJQsqaUBKTNV-1">
          <mxGeometry x="320" y="720" width="120" height="40" as="geometry" />
        </mxCell>
        <mxCell id="phmzc0bk1OuxTDMJxnuO-85" style="edgeStyle=orthogonalEdgeStyle;rounded=0;orthogonalLoop=1;jettySize=auto;html=1;entryX=0;entryY=0.5;entryDx=0;entryDy=0;" edge="1" parent="WIyWlLk6GJQsqaUBKTNV-1" source="phmzc0bk1OuxTDMJxnuO-56" target="phmzc0bk1OuxTDMJxnuO-72">
          <mxGeometry relative="1" as="geometry">
            <mxPoint x="300" y="1070" as="targetPoint" />
            <Array as="points">
              <mxPoint x="300" y="955" />
              <mxPoint x="301" y="955" />
              <mxPoint x="301" y="990" />
              <mxPoint x="680" y="990" />
            </Array>
          </mxGeometry>
        </mxCell>
        <mxCell id="phmzc0bk1OuxTDMJxnuO-56" value="Забрать наличные" style="rounded=0;whiteSpace=wrap;html=1;" vertex="1" parent="WIyWlLk6GJQsqaUBKTNV-1">
          <mxGeometry x="240" y="800" width="120" height="40" as="geometry" />
        </mxCell>
        <mxCell id="phmzc0bk1OuxTDMJxnuO-59" value="Да" style="text;strokeColor=none;fillColor=none;align=left;verticalAlign=middle;spacingLeft=4;spacingRight=4;overflow=hidden;points=[[0,0.5],[1,0.5]];portConstraint=eastwest;rotatable=0;whiteSpace=wrap;html=1;" vertex="1" parent="WIyWlLk6GJQsqaUBKTNV-1">
          <mxGeometry x="374" y="760" width="80" height="30" as="geometry" />
        </mxCell>
        <mxCell id="phmzc0bk1OuxTDMJxnuO-64" value="" style="edgeStyle=orthogonalEdgeStyle;rounded=0;orthogonalLoop=1;jettySize=auto;html=1;" edge="1" parent="WIyWlLk6GJQsqaUBKTNV-1" source="phmzc0bk1OuxTDMJxnuO-60" target="phmzc0bk1OuxTDMJxnuO-63">
          <mxGeometry relative="1" as="geometry" />
        </mxCell>
        <mxCell id="phmzc0bk1OuxTDMJxnuO-60" value="Ввести другую сумму" style="rounded=0;whiteSpace=wrap;html=1;" vertex="1" parent="WIyWlLk6GJQsqaUBKTNV-1">
          <mxGeometry x="400" y="800" width="120" height="40" as="geometry" />
        </mxCell>
        <mxCell id="phmzc0bk1OuxTDMJxnuO-62" value="Нет" style="text;strokeColor=none;fillColor=none;align=left;verticalAlign=middle;spacingLeft=4;spacingRight=4;overflow=hidden;points=[[0,0.5],[1,0.5]];portConstraint=eastwest;rotatable=0;whiteSpace=wrap;html=1;" vertex="1" parent="WIyWlLk6GJQsqaUBKTNV-1">
          <mxGeometry x="460" y="760" width="80" height="30" as="geometry" />
        </mxCell>
        <mxCell id="phmzc0bk1OuxTDMJxnuO-80" style="edgeStyle=orthogonalEdgeStyle;rounded=0;orthogonalLoop=1;jettySize=auto;html=1;" edge="1" parent="WIyWlLk6GJQsqaUBKTNV-1" source="phmzc0bk1OuxTDMJxnuO-63">
          <mxGeometry relative="1" as="geometry">
            <mxPoint x="680" y="940" as="targetPoint" />
          </mxGeometry>
        </mxCell>
        <mxCell id="phmzc0bk1OuxTDMJxnuO-63" value="Забрать наличные" style="rounded=0;whiteSpace=wrap;html=1;" vertex="1" parent="WIyWlLk6GJQsqaUBKTNV-1">
          <mxGeometry x="400" y="880" width="120" height="40" as="geometry" />
        </mxCell>
        <mxCell id="phmzc0bk1OuxTDMJxnuO-70" value="" style="edgeStyle=orthogonalEdgeStyle;rounded=0;orthogonalLoop=1;jettySize=auto;html=1;" edge="1" parent="WIyWlLk6GJQsqaUBKTNV-1" source="phmzc0bk1OuxTDMJxnuO-67" target="phmzc0bk1OuxTDMJxnuO-69">
          <mxGeometry relative="1" as="geometry" />
        </mxCell>
        <mxCell id="phmzc0bk1OuxTDMJxnuO-76" style="edgeStyle=orthogonalEdgeStyle;rounded=0;orthogonalLoop=1;jettySize=auto;html=1;" edge="1" parent="WIyWlLk6GJQsqaUBKTNV-1" source="phmzc0bk1OuxTDMJxnuO-67">
          <mxGeometry relative="1" as="geometry">
            <mxPoint x="740" y="910" as="targetPoint" />
          </mxGeometry>
        </mxCell>
        <mxCell id="phmzc0bk1OuxTDMJxnuO-67" value="Нужно распечатать чек" style="rhombus;whiteSpace=wrap;html=1;" vertex="1" parent="WIyWlLk6GJQsqaUBKTNV-1">
          <mxGeometry x="560" y="720" width="120" height="40" as="geometry" />
        </mxCell>
        <mxCell id="phmzc0bk1OuxTDMJxnuO-79" style="edgeStyle=orthogonalEdgeStyle;rounded=0;orthogonalLoop=1;jettySize=auto;html=1;entryX=0;entryY=0.5;entryDx=0;entryDy=0;" edge="1" parent="WIyWlLk6GJQsqaUBKTNV-1" source="phmzc0bk1OuxTDMJxnuO-69" target="phmzc0bk1OuxTDMJxnuO-72">
          <mxGeometry relative="1" as="geometry" />
        </mxCell>
        <mxCell id="phmzc0bk1OuxTDMJxnuO-69" value="Получить чек" style="rounded=0;whiteSpace=wrap;html=1;" vertex="1" parent="WIyWlLk6GJQsqaUBKTNV-1">
          <mxGeometry x="560" y="800" width="120" height="40" as="geometry" />
        </mxCell>
        <mxCell id="phmzc0bk1OuxTDMJxnuO-71" value="Да" style="text;strokeColor=none;fillColor=none;align=left;verticalAlign=middle;spacingLeft=4;spacingRight=4;overflow=hidden;points=[[0,0.5],[1,0.5]];portConstraint=eastwest;rotatable=0;whiteSpace=wrap;html=1;" vertex="1" parent="WIyWlLk6GJQsqaUBKTNV-1">
          <mxGeometry x="620" y="760" width="80" height="30" as="geometry" />
        </mxCell>
        <mxCell id="phmzc0bk1OuxTDMJxnuO-74" value="" style="edgeStyle=orthogonalEdgeStyle;rounded=0;orthogonalLoop=1;jettySize=auto;html=1;" edge="1" parent="WIyWlLk6GJQsqaUBKTNV-1" source="phmzc0bk1OuxTDMJxnuO-72" target="phmzc0bk1OuxTDMJxnuO-73">
          <mxGeometry relative="1" as="geometry" />
        </mxCell>
        <mxCell id="phmzc0bk1OuxTDMJxnuO-86" style="edgeStyle=orthogonalEdgeStyle;rounded=0;orthogonalLoop=1;jettySize=auto;html=1;entryX=1;entryY=0.5;entryDx=0;entryDy=0;" edge="1" parent="WIyWlLk6GJQsqaUBKTNV-1" source="phmzc0bk1OuxTDMJxnuO-72" target="phmzc0bk1OuxTDMJxnuO-10">
          <mxGeometry relative="1" as="geometry">
            <mxPoint x="820" y="470" as="targetPoint" />
            <Array as="points">
              <mxPoint x="821" y="940" />
              <mxPoint x="821" y="500" />
            </Array>
          </mxGeometry>
        </mxCell>
        <mxCell id="phmzc0bk1OuxTDMJxnuO-72" value="Завершение работы" style="rhombus;whiteSpace=wrap;html=1;" vertex="1" parent="WIyWlLk6GJQsqaUBKTNV-1">
          <mxGeometry x="680" y="920" width="120" height="40" as="geometry" />
        </mxCell>
        <mxCell id="phmzc0bk1OuxTDMJxnuO-73" value="Конец алгоритма" style="ellipse;whiteSpace=wrap;html=1;" vertex="1" parent="WIyWlLk6GJQsqaUBKTNV-1">
          <mxGeometry x="680" y="1000" width="120" height="40" as="geometry" />
        </mxCell>
        <mxCell id="phmzc0bk1OuxTDMJxnuO-75" value="Да" style="text;strokeColor=none;fillColor=none;align=left;verticalAlign=middle;spacingLeft=4;spacingRight=4;overflow=hidden;points=[[0,0.5],[1,0.5]];portConstraint=eastwest;rotatable=0;whiteSpace=wrap;html=1;" vertex="1" parent="WIyWlLk6GJQsqaUBKTNV-1">
          <mxGeometry x="740" y="960" width="80" height="30" as="geometry" />
        </mxCell>
        <mxCell id="phmzc0bk1OuxTDMJxnuO-77" value="Нет" style="text;strokeColor=none;fillColor=none;align=left;verticalAlign=middle;spacingLeft=4;spacingRight=4;overflow=hidden;points=[[0,0.5],[1,0.5]];portConstraint=eastwest;rotatable=0;whiteSpace=wrap;html=1;" vertex="1" parent="WIyWlLk6GJQsqaUBKTNV-1">
          <mxGeometry x="680" y="720" width="80" height="30" as="geometry" />
        </mxCell>
        <mxCell id="phmzc0bk1OuxTDMJxnuO-82" value="Нет" style="text;strokeColor=none;fillColor=none;align=left;verticalAlign=middle;spacingLeft=4;spacingRight=4;overflow=hidden;points=[[0,0.5],[1,0.5]];portConstraint=eastwest;rotatable=0;whiteSpace=wrap;html=1;" vertex="1" parent="WIyWlLk6GJQsqaUBKTNV-1">
          <mxGeometry x="600" y="560" width="80" height="30" as="geometry" />
        </mxCell>
      </root>
    </mxGraphModel>
  </diagram>
</mxfile>
